<?xml version="1.0" standalone="no"?>
<!DOCTYPE svg PUBLIC "-//W3C//DTD SVG 20010904//EN"
 "http://www.w3.org/TR/2001/REC-SVG-20010904/DTD/svg10.dtd">
<svg version="1.0" xmlns="http://www.w3.org/2000/svg"
 width="196.000000pt" height="196.000000pt" viewBox="0 0 196.000000 196.000000"
 preserveAspectRatio="xMidYMid meet">
<metadata>
Created by potrace 1.10, written by Peter Selinger 2001-2011
</metadata>
<g transform="translate(0.000000,196.000000) scale(0.100000,-0.100000)"
fill="currentColor" stroke="none">
<path d="M845 1949 c-211 -28 -424 -137 -572 -293 -455 -480 -319 -1256 272
-1547 159 -78 228 -93 430 -93 144 0 182 4 250 22 203 56 403 188 521 345 l46
62 -53 7 c-68 10 -217 83 -287 141 -64 53 -141 143 -189 220 -20 31 -37 56
-38 55 -1 -2 -33 -56 -70 -121 -68 -120 -93 -147 -132 -147 -37 0 -45 30 -33
122 5 45 10 243 10 440 0 345 1 359 20 378 11 11 27 20 35 20 8 0 24 -9 35
-20 23 -23 25 -88 10 -445 -4 -116 -7 -211 -6 -213 2 -1 63 89 138 200 149
224 239 338 268 338 41 0 28 -63 -30 -150 -89 -133 -162 -270 -156 -293 8 -32
98 -169 152 -234 79 -92 246 -200 340 -219 30 -6 31 -4 63 67 99 221 107 494
21 732 -60 165 -200 349 -346 453 -86 62 -234 130 -333 153 -99 24 -269 33
-366 20z m115 -433 c0 -23 -49 -75 -90 -96 -39 -20 -132 -34 -302 -46 l-98 -6
0 -98 c0 -53 -3 -145 -6 -203 l-7 -106 34 4 c19 2 102 14 185 26 156 23 188
21 182 -8 -9 -48 -151 -96 -322 -109 l-84 -7 -14 -89 -15 -90 96 -45 c257
-120 469 -151 574 -84 62 40 78 45 95 35 24 -16 25 -28 2 -57 -33 -42 -134
-85 -228 -97 -162 -21 -336 13 -476 96 -43 25 -82 42 -86 37 -4 -4 -13 -30
-19 -58 -7 -27 -17 -55 -23 -62 -15 -19 -77 -17 -85 3 -3 8 11 65 31 125 20
61 43 149 51 196 13 77 13 88 0 103 -21 23 -19 53 5 75 23 21 25 71 13 296
l-6 126 -28 10 c-36 14 -37 36 -4 69 23 23 29 24 77 17 29 -4 103 -7 163 -7
89 1 131 7 220 32 126 34 165 38 165 18z"/>
</g>
</svg>
